<?xml version="1.0" encoding="utf-8"?>
<svg xmlns="http://www.w3.org/2000/svg" xmlns:xlink="http://www.w3.org/1999/xlink" style="margin: auto; display: block; shape-rendering: auto;" width="108px" height="108px" viewBox="0 0 100 100" preserveAspectRatio="xMidYMid">
<g transform="translate(50 50)">
  <g transform="scale(0.7)">
    <g transform="translate(-50 -50)">
      <g transform="rotate(116.193 50 50)">
        <animateTransform attributeName="transform" type="rotate" repeatCount="indefinite" values="0 50 50;360 50 50" keyTimes="0;1" dur="0.7142857142857143s"></animateTransform>
        <path fill-opacity="0.8" fill="#4661f4" d="M50 50L50 0A50 50 0 0 1 100 50Z"></path>
      </g>
      <g transform="rotate(357.145 50.0004 50.0004)">
        <animateTransform attributeName="transform" type="rotate" repeatCount="indefinite" values="0 50 50;360 50 50" keyTimes="0;1" dur="0.9523809523809526s"></animateTransform>
        <path fill-opacity="0.8" fill="#38c570" d="M50 50L50 0A50 50 0 0 1 100 50Z" transform="rotate(90 50 50)"></path>
      </g>
      <g transform="rotate(238.097 50 50)">
        <animateTransform attributeName="transform" type="rotate" repeatCount="indefinite" values="0 50 50;360 50 50" keyTimes="0;1" dur="1.4285714285714286s"></animateTransform>
        <path fill-opacity="0.8" fill="#4686f4" d="M50 50L50 0A50 50 0 0 1 100 50Z" transform="rotate(180 50 50)"></path>
      </g>
      <g transform="rotate(119.048 50 50)">
        <animateTransform attributeName="transform" type="rotate" repeatCount="indefinite" values="0 50 50;360 50 50" keyTimes="0;1" dur="2.857142857142857s"></animateTransform>
        <path fill-opacity="0.8" fill="#b3f32e" d="M50 50L50 0A50 50 0 0 1 100 50Z" transform="rotate(270 50 50)"></path>
      </g>
    </g>
  </g>
</g>
<!-- [ldio] generated by https://loading.io/ --></svg>
